<svg xmlns="http://www.w3.org/2000/svg" width="2400" height="1350" viewBox="0 0 2400 1350" role="img" aria-label="Modern glass Christmas tree with data-lights">
  <defs>
    <linearGradient id="g0" x1="0" y1="0" x2="1" y2="1">
      <stop offset="0" stop-color="#05070c"/>
      <stop offset="1" stop-color="#0b1020"/>
    </linearGradient>
    <radialGradient id="goldGlow" cx="30%" cy="24%" r="70%">
      <stop offset="0" stop-color="rgba(212,175,55,.26)"/>
      <stop offset="0.55" stop-color="rgba(212,175,55,.08)"/>
      <stop offset="1" stop-color="rgba(212,175,55,0)"/>
    </radialGradient>
    <radialGradient id="blueGlow" cx="80%" cy="18%" r="70%">
      <stop offset="0" stop-color="rgba(255,255,255,.08)"/>
      <stop offset="1" stop-color="rgba(120,180,255,0)"/>
    </radialGradient>
    <filter id="blur" x="-20%" y="-20%" width="140%" height="140%">
      <feGaussianBlur stdDeviation="8"/>
    </filter>
  </defs>

  <rect width="2400" height="1350" fill="url(#g0)"/>
  <rect width="2400" height="1350" fill="url(#goldGlow)"/>
  <rect width="2400" height="1350" fill="url(#blueGlow)"/>

  <g opacity="0.8"><path d="M 203.5 719.1 Q 969.2 427.9 1519.8 458.6" stroke="rgba(243,210,122,0.075)" stroke-width="1.39" fill="none"/><path d="M 630.2 441.6 Q 149.1 89.7 -15.7 -18.0" stroke="rgba(243,210,122,0.129)" stroke-width="1.31" fill="none"/><path d="M 2354.9 708.2 Q 2536.9 1080.9 2326.7 1078.3" stroke="rgba(243,210,122,0.081)" stroke-width="1.51" fill="none"/><path d="M 590.8 1398.5 Q 725.2 905.8 1324.4 247.3" stroke="rgba(243,210,122,0.132)" stroke-width="1.53" fill="none"/><path d="M 2448.2 190.2 Q 1683.3 322.6 1285.7 607.4" stroke="rgba(243,210,122,0.095)" stroke-width="1.75" fill="none"/><path d="M 1014.7 1437.3 Q 2071.2 1538.6 2379.1 1403.9" stroke="rgba(243,210,122,0.131)" stroke-width="1.43" fill="none"/><path d="M 611.6 164.8 Q 1613.0 45.0 2402.3 308.5" stroke="rgba(243,210,122,0.063)" stroke-width="2.18" fill="none"/><path d="M 2112.8 1178.1 Q 943.4 699.5 11.3 582.5" stroke="rgba(243,210,122,0.099)" stroke-width="1.38" fill="none"/><path d="M 615.0 477.2 Q 1086.1 586.5 2188.1 747.1" stroke="rgba(243,210,122,0.118)" stroke-width="2.06" fill="none"/><path d="M 2017.7 784.6 Q 1925.7 540.2 1454.0 675.3" stroke="rgba(243,210,122,0.099)" stroke-width="1.11" fill="none"/><path d="M 956.3 893.7 Q 1052.0 692.2 521.7 279.5" stroke="rgba(243,210,122,0.133)" stroke-width="1.39" fill="none"/><path d="M 2291.7 1045.9 Q 2360.6 829.5 2242.6 522.0" stroke="rgba(243,210,122,0.112)" stroke-width="1.39" fill="none"/><path d="M 1612.7 492.5 Q 2188.7 598.6 2465.8 607.8" stroke="rgba(243,210,122,0.116)" stroke-width="1.19" fill="none"/><path d="M 2473.7 526.2 Q 1329.7 794.5 60.7 919.6" stroke="rgba(243,210,122,0.099)" stroke-width="1.71" fill="none"/></g>
  <g><circle cx="634.7" cy="598.8" r="4.4" fill="rgba(212,175,55,0.094)"/><circle cx="1123.9" cy="400.0" r="5.0" fill="rgba(212,175,55,0.124)"/><circle cx="373.6" cy="804.8" r="4.3" fill="rgba(212,175,55,0.137)"/><circle cx="1706.3" cy="352.7" r="4.2" fill="rgba(212,175,55,0.119)"/><circle cx="2065.2" cy="973.8" r="2.7" fill="rgba(212,175,55,0.107)"/><circle cx="711.1" cy="306.1" r="2.8" fill="rgba(212,175,55,0.077)"/><circle cx="149.0" cy="160.6" r="2.1" fill="rgba(212,175,55,0.083)"/><circle cx="1667.1" cy="816.4" r="3.2" fill="rgba(212,175,55,0.131)"/><circle cx="54.9" cy="900.5" r="4.3" fill="rgba(212,175,55,0.121)"/><circle cx="1373.6" cy="1235.1" r="3.6" fill="rgba(212,175,55,0.062)"/><circle cx="1144.7" cy="520.8" r="4.9" fill="rgba(212,175,55,0.058)"/><circle cx="2328.7" cy="930.5" r="5.3" fill="rgba(212,175,55,0.119)"/><circle cx="1023.6" cy="512.5" r="3.4" fill="rgba(212,175,55,0.081)"/><circle cx="177.2" cy="1254.8" r="3.9" fill="rgba(212,175,55,0.070)"/><circle cx="568.0" cy="725.2" r="3.1" fill="rgba(212,175,55,0.118)"/><circle cx="496.4" cy="1131.6" r="4.0" fill="rgba(212,175,55,0.065)"/><circle cx="565.5" cy="655.4" r="4.3" fill="rgba(212,175,55,0.088)"/><circle cx="575.2" cy="382.4" r="3.5" fill="rgba(212,175,55,0.129)"/><circle cx="2297.0" cy="1295.9" r="5.7" fill="rgba(212,175,55,0.100)"/><circle cx="704.6" cy="869.7" r="4.4" fill="rgba(212,175,55,0.115)"/><circle cx="231.6" cy="773.3" r="4.8" fill="rgba(212,175,55,0.055)"/><circle cx="2260.0" cy="405.1" r="4.1" fill="rgba(212,175,55,0.092)"/><circle cx="2348.0" cy="712.2" r="3.7" fill="rgba(212,175,55,0.068)"/><circle cx="103.0" cy="518.8" r="2.7" fill="rgba(212,175,55,0.067)"/><circle cx="194.8" cy="69.4" r="5.2" fill="rgba(212,175,55,0.123)"/><circle cx="2247.4" cy="228.1" r="4.7" fill="rgba(212,175,55,0.079)"/><circle cx="1785.0" cy="348.1" r="2.1" fill="rgba(212,175,55,0.076)"/><circle cx="134.6" cy="384.2" r="2.4" fill="rgba(212,175,55,0.055)"/><circle cx="1075.7" cy="356.9" r="5.4" fill="rgba(212,175,55,0.090)"/><circle cx="1543.7" cy="1062.6" r="3.3" fill="rgba(212,175,55,0.112)"/><circle cx="262.4" cy="1233.0" r="2.3" fill="rgba(212,175,55,0.140)"/><circle cx="35.3" cy="703.8" r="5.1" fill="rgba(212,175,55,0.106)"/><circle cx="907.4" cy="150.7" r="3.8" fill="rgba(212,175,55,0.072)"/><circle cx="2005.5" cy="683.7" r="3.2" fill="rgba(212,175,55,0.080)"/><circle cx="2384.1" cy="1150.8" r="3.4" fill="rgba(212,175,55,0.071)"/><circle cx="957.4" cy="424.0" r="5.6" fill="rgba(212,175,55,0.051)"/><circle cx="471.0" cy="45.1" r="4.2" fill="rgba(212,175,55,0.067)"/><circle cx="412.8" cy="1106.6" r="2.4" fill="rgba(212,175,55,0.105)"/></g>

  <g filter="url(#blur)" opacity="0.9">
    <circle cx="1752.0" cy="621.0" r="210" fill="rgba(255,255,255,.04)"/>
  </g>

  <g><circle cx="1752.0" cy="621.0" r="160" fill="none" stroke="rgba(212,175,55,0.180)" stroke-width="1.2"/><circle cx="1752.0" cy="621.0" r="215" fill="none" stroke="rgba(212,175,55,0.150)" stroke-width="1.2"/><circle cx="1752.0" cy="621.0" r="270" fill="none" stroke="rgba(212,175,55,0.120)" stroke-width="1.2"/><circle cx="1752.0" cy="621.0" r="325" fill="none" stroke="rgba(212,175,55,0.090)" stroke-width="1.2"/></g>

  <g>
    <rect x="1562.0" y="555.0" width="380" height="132" rx="26" fill="rgba(255,255,255,.05)" stroke="rgba(255,255,255,.10)"/>
    <text x="1752.0" y="613.0" text-anchor="middle" font-family="ui-sans-serif,system-ui" font-size="50" fill="rgba(245,247,255,.92)" letter-spacing="2">W3</text>
    <text x="1752.0" y="655.0" text-anchor="middle" font-family="ui-sans-serif,system-ui" font-size="22" fill="rgba(245,247,255,.60)" letter-spacing="1">w3.christmas</text>
  </g>

  <g opacity="0.9">
    <circle cx="432.0" cy="1053.0" r="280" fill="rgba(212,175,55,.06)"/>
    <circle cx="432.0" cy="1053.0" r="279" fill="none" stroke="rgba(255,255,255,.06)"/>
  </g>
</svg>